<?xml version="1.0" encoding="UTF-8"?> <svg xmlns="http://www.w3.org/2000/svg" xmlns:xlink="http://www.w3.org/1999/xlink" version="1.1" id="Capa_1" x="0px" y="0px" viewBox="0 0 385 117.4" style="enable-background:new 0 0 385 117.4;" xml:space="preserve"> <style type="text/css"> .st0{fill:#202221;} </style> <g> <path class="st0" d="M13.4,67.6c-0.5-0.9-0.8-2-0.3-2.3c0.4,0,1.9,1,2.9,1.1c2.1,0.3,5.3,0.8,9.5-2.4c2.5-1.9,5-4.3,8.1-12.8 c1.9-5.2,3.1-9.7,0.7-9.4c-1.5,0.2-7.5,6-9.9,9.4c-2.2,3.3-4,6.4-5.3,9.1c-1.3,2.7-1.7,4.2-5.1,3c-3.2-1.2-3.8-3.3-3.5-7 c0.1-1.3,0.2-2.7,0.5-4.2c0.7-3.1,0.9-4.6,2.1-8.2l1.2-3.8c0,0,10.8-26.9,14.5-34.3c1.2-2.6,7.2,1.3,6.4,3.7 c-0.5,1.3-3.5,7.1-6.2,13.2c-2.8,6.1-3.6,8.9-5.8,14.5c-2.1,5.6-3.4,8.1-3.4,10.1c3.4-4.9,10.3-11,13.7-11c2.7,0,5.3,1.1,6.9,3.3 c2.5,3.3,1.3,7.2,0,12.6c-1.3,5.2-4.8,12-8.2,15.6c-2.7,2.9-7.8,4.5-9.8,4.5C19.2,72.5,14.9,70.1,13.4,67.6"></path> <path class="st0" d="M45.8,69.7c-3.2-2.5-3.7-5-3.7-8.8c0-5.3,2.2-10.2,6.6-14.8c4.5-4.6,8.7-6.9,12.6-6.9c1.1,0,2.2,0.3,3.3,0.9 c1.4,0.8,2.2,2,2.5,3.8c0.1,0.4,0.1,1,0.1,1.7c0,1.6-0.3,3.3-0.8,4.8c-1.5,4.6-5.2,8.9-10.2,10c-0.3,0.1-0.7,0.1-1.3,0.1 c-2.2,0-4.3-0.6-6-1.7c-1.1,3.6-0.9,6.2,0.6,7.9c0.8,0.9,2.2,1.3,4.3,1.3c6.6,0,12.9-3,19-9c0.1-0.1,0.2,0,0.3,0.3 c0.2,1.5-0.5,3.5-2.2,5.6l-0.4,0.5C66.9,69.6,60.2,73,54.9,73C51.5,73,48.5,71.9,45.8,69.7 M56.3,52.7c0.9-0.6,2.2-1.9,4-4.1 c1.8-2.1,2.5-3.5,2.2-4.1c-0.3-1.6-8.8,5-11.2,9.9C52.6,55.2,54.4,54.6,56.3,52.7"></path> <path class="st0" d="M89.3,62c-5.9,6.4-10.9,9.4-15.1,9.1c-11.1-1.1-5.1-15.9,3.1-24.9c4.7-5.3,12.1-9.3,17.6-5.4 c0.9-1.3,2.4-1.3,4.8,0c2.2,1.1,3,2.3,2.2,3.8c-1.6,3-3.2,6.3-4.5,10.3c-1.3,3.9-2,7.1-2,9.8c0,2.4,0.9,3.9,3.4,3.8 c4.1,0.1,12.8-6.8,13.2-7c0.5-0.4,0.7-0.4,0.7,0c-0.1,1.3-1.4,3.4-3.8,6.3c-3,3.6-5.8,5.6-8.5,5.9C94.4,74.4,89.8,69.7,89.3,62 M75.4,65.6c1.9-0.6,5.1-3.3,9.4-8c4.7-5.2,7-9,7-11.2c-2.5-3.2-13.3,7.6-17.1,17.8C74.3,65.4,74.5,65.9,75.4,65.6"></path> <path class="st0" d="M110.4,56.6c0.9-3.4,2.1-7.5,3.9-12.3c1.7-4.8,3.1-7.4,4.1-7.9c0.9-0.3,2.2,0.1,3.8,1.4 c1.6,1.3,2.4,2.7,2.4,4.2c0,0.6-0.2,1.4-0.7,2.3c-0.9,1.7-3.9,7.4-6.6,14.1c-1.7,5.5-2.3,8.5-1.7,8.8h0.4c0.1,0,0.6-0.5,1.8-1.8 c1.4-1.7,4.7-5.5,9.6-10.8l2.4-3.2c1.5-1.9,2.8-3.4,3.5-4.2c0.8-0.9,4.3-6.9,5.7-6.6c1.5-0.1,3.7,1.3,4.5,2.9 c1.3,2.1,0.4,2.4-0.2,5c-1.2,3.4-2.4,7.1-3.4,11.5c-0.8,4.2-0.5,7.2,1.4,7.2c2.8,0,7.2-1.9,11.3-4.3l3-1.6c0.5-0.3,0.8-0.3,0.7,0.1 c-0.1,1.1-1.5,3.1-4.2,5.8c-3.3,3.4-6.2,5.2-8.9,5.5c-3.3,0.3-5.9-1-7.9-3.8c-1.9-2.8-2.3-7-1.2-12.6c-0.9,1-3.1,3.5-6.3,7.3 c-6.4,7.6-10.3,11.2-13,10.9C108.9,73.5,107.5,67.5,110.4,56.6"></path> <path class="st0" d="M153,70.2c-0.5-0.7-0.6-1.9-0.5-3.7c0.3-5.2,1.9-11.3,4.7-18.2c-0.4-0.1-2,0.1-2.4,0.1c-1.5,0-2.2-0.8-2.2-2.4 c0-1.6,0.1-2.4,0.9-3c0.8-0.7,3.2-0.6,6-1.2l3.5-8.7l4.6-10.8c1.7-4.5,3.1-6.9,4-7.3c0.4-0.1,0.7-0.2,0.9-0.2 c1.1,0,2.2,0.5,3.3,1.6c1,1.1,1.4,2,1.1,2.8c0,0.1-1.8,4.3-5.4,12.7c-0.8,1.7-2.1,4.9-4,9.6c1.5,0,4.7-0.4,5.8-0.4 c1.7,0,6-0.4,8.1-0.4c1.5,0,1.5,0.7,0,2c-2.1,2-4.8,3.4-7.9,4c-0.1,0.1-0.2,0.1-0.3,0.1l-4.1,0.6l-4.2,0.7 c-0.9,1.6-2.4,5.7-4.4,12.1c-1.1,5.5-1.7,8.4-1.7,8.5c-0.1,0.8,0.2,2.3,0.2,2.8c-0.2,1-1,1.4-2.4,1.3C155,72.6,153.7,71.7,153,70.2 "></path> <path class="st0" d="M176.8,104.6c0-0.1-0.1-0.8-0.1-1.2c0-0.6,0.1-1.2,0.2-1.7c0.5-0.9,0.9-1.4,1.2-1.4c0.2,0,0.8,0.6,1.7,1.8 l1.6,1.9c0.4,0.4,1.1,0.6,1.9,0.5c0.9-0.2,2.4-2.2,4.8-6c1.3-2.3,3.6-6.8,6.7-13.5c1.2-2.5,3.1-7.1,5.6-13.8c0.7-1.6,1.7-5,3.3-10 c1.5-5,2.4-8.7,2.7-10.8c-3.2,4.2-8.1,9.1-14.6,14.6c-3.4,2.9-5.8,4.3-7.3,4.3c-4,0-6.3-3.6-6.3-8.8c0-1.5,0.2-3.1,0.6-4.7 c2.1-9.1,4.1-13.9,6-14.3c0.7-0.2,2,0.3,3.8,1.6c1.3,1,1.9,1.8,1.9,2.3c0,0.3-0.1,0.6-0.3,1c-1.2,2.5-2.1,4.7-2.8,6.2 c-1.3,3.3-2,5.8-2,7.7c0,1.7,5.1-2.7,15.4-12.9l0.4-0.4l2.2-2.4c2-2.3,3.7-3.9,5.4-5c0.7-0.4,1.5-0.6,2.4-0.6 c2.6,0,4.8,1.6,4.7,4.2c0,1.5-1.9,5.3-2.3,8.1c-0.7,4.2-2.7,11-5.9,20.3c-3.2,9.4-7,18.4-11.5,27c-4.4,8.7-8.1,12.9-11,12.9 C181.3,112.1,177.5,108.7,176.8,104.6"></path> <path class="st0" d="M220.5,70.1c-2.3-2.3-3.5-5.3-3.5-8.8c0-6.8,4.4-14.2,9.2-18.7c2.8-2.4,5.1-3.7,7.1-3.7c1.6,0,3.3,0.7,4.8,2 c1.7,1.6,2.7,3.4,2.7,5.1c0,1.2-0.7,1.8-2,1.8c-0.3,0-0.7-0.1-1.4-0.2c-1.2-0.3-2.3-1.1-2.8-1.1c-0.4,0-1,0.3-1.9,0.8 c-0.9,0.6-2.5,2.5-4.9,5.7c-3.2,4.3-4.7,7.9-4.7,10.6c0,1.1,0.3,2.1,0.9,3c0.7,0.8,1.7,1.2,3.1,1.2c4.4,0,10.7-2.9,19-8.6 c0.3-0.1,0.4,0.2,0.4,0.7c0,1.7-0.9,3.6-2.8,5.7c-1.1,1.2-3.3,3-6.4,5.1c-2.1,1.4-4.9,2.1-8.2,2.1C225.3,73,222.4,72,220.5,70.1"></path> <path class="st0" d="M262.7,62c-5.9,6.4-10.9,9.4-15.1,9.1c-11.1-1.1-5.1-15.9,3.1-24.9c4.7-5.3,12.1-9.3,17.6-5.4 c0.9-1.3,2.4-1.3,4.8,0c2.2,1.1,3,2.3,2.2,3.8c-1.6,3-3.2,6.3-4.5,10.3c-1.3,3.9-2,7.1-2,9.8c0,2.4,0.9,3.9,3.4,3.8 c4.1,0.1,12.8-6.8,13.2-7c0.5-0.4,0.7-0.4,0.7,0c-0.1,1.3-1.4,3.4-3.8,6.3c-3,3.6-5.8,5.6-8.5,5.9C267.8,74.4,263.2,69.7,262.7,62 M248.7,65.6c1.9-0.6,5.1-3.3,9.4-8c4.7-5.2,7-9,7-11.2c-2.5-3.2-13.3,7.6-17.1,17.8C247.7,65.4,247.9,65.9,248.7,65.6"></path> <path class="st0" d="M289.1,71.6c-4-2.3-4.8-6.3-4.8-12.4c0-4.4,1.2-10.6,3.8-18.7c1.5-4.8,3.5-9.9,5.9-15.3c2.3-5,5-9.8,8.1-14.3 c2-3.1,4.2-5,6.4-5.7c0.3-0.1,0.9-0.2,1.7-0.2c3.8,0,7.9,2.3,8,6c0.1,5.2-0.8,10.2-3,15.2c-3,7-6.2,13.3-10,18.8 c-5.6,8.7-10.4,14.3-14.3,17c0,4.7,1.8,7,5.6,7c3.6,0,7.3-1.6,11.1-5c0.7-0.5,1.4-1.2,2.3-2.1c1.1-1,1.7-1.4,1.9-1.1l0.2,0.4 c0.3,1.2-1.4,5-3.2,6.7c-3.9,3.9-7.6,5.8-11.2,5.8C294.4,73.8,291.4,73,289.1,71.6 M297.9,46.4c3-4.2,5.4-8.2,7.1-12l1.7-3.8l2-4.3 c1.6-3.4,3.7-9.2,4-13.3c0.1-0.3,0.1-0.6,0.1-1.1c0-0.9-0.2-1.3-0.6-1.3c-1.1,0-3.5,3.3-7,9.9c-3.5,6.5-6.5,13-9.2,19.5 c-2.1,5-3.8,10-4.9,15C293.7,52.2,295.9,49.4,297.9,46.4"></path> <path class="st0" d="M314.2,69.5c-2.3-2.5-3-6.4-1.8-11.7c0.7-3.8,2.1-8.2,4.2-13.3c1.2-3.2,2.3-3.7,4.4-2.9c3,0.7,4,1.8,3.1,3.6 c-3.7,7.6-5.5,13.9-5.5,18.5c0,1.7,0.5,2.9,1.4,3.4c1.9,1.5,6.2-0.1,8.8-1.6c1.3-0.7,2.8-1.6,4.1-2.5l2.4-1.5 c0.5-0.3,0.8-0.3,0.7,0.1c-0.1,1.1-1.5,3.1-4.2,5.8c-3.3,3.5-6.2,5.3-8.9,5.5C319.5,73,316.5,71.9,314.2,69.5 M323.2,33.3 c-0.4-0.7-0.6-2-0.6-3.8c0-1.5,0.4-3.3,1.1-5.2c0.8-1.9,1.8-3,3.2-3c0.9,0,2,0.6,3.2,1.7c0.6,0.6,0.9,1.6,0.9,3.1 c0,1.3-0.7,3.2-2,5.3c-1.3,2.1-2.7,3.3-3.9,3.3C324.3,34.7,323.7,34.2,323.2,33.3"></path> <path class="st0" d="M352.5,62c-5.9,6.4-10.9,9.4-15.1,9.1c-11.1-1.1-5.1-15.9,3.1-24.9c4.7-5.3,12.1-9.3,17.6-5.4 c0.9-1.3,2.4-1.3,4.8,0c2.2,1.1,3,2.3,2.2,3.8c-1.6,3-3.2,6.3-4.5,10.3c-1.3,3.9-2,7.1-2,9.8c0,2.4,0.9,3.9,3.4,3.8 c4.1,0.1,12.8-6.8,13.2-7c0.5-0.4,0.7-0.4,0.7,0c-0.1,1.3-1.4,3.4-3.8,6.3c-3,3.6-5.8,5.6-8.5,5.9C357.6,74.4,353,69.7,352.5,62 M338.5,65.6c1.9-0.6,5.1-3.3,9.4-8c4.7-5.2,7-9,7-11.2c-2.5-3.2-13.3,7.6-17.1,17.8C337.5,65.4,337.7,65.9,338.5,65.6"></path> </g> </svg> 